<svg width="101" height="101" viewBox="0 0 101 101" fill="none" xmlns="http://www.w3.org/2000/svg">
<circle cx="50.5" cy="50.5" r="47.5" fill="black" stroke="white" stroke-width="6"/>
<path d="M43.2539 32.6562H44.6602V65H43.2539V32.6562ZM40.4414 32.6562H41.8477V65H40.4414V32.6562ZM37.6289 32.6562H39.0352V65H37.6289V32.6562ZM34.8164 32.6562H36.2227V65H34.8164V32.6562ZM47.7461 34.0625V32.6562H68.8398V34.0625H47.7461ZM47.7461 36.875V35.4688H68.8398V36.875H47.7461ZM47.7461 39.6875V38.2812H68.8398V39.6875H63.2148V65H61.8086V39.6875H60.4023V65H58.9961V39.6875H57.5898V65H56.1836V39.6875H54.7773V65H53.3711V39.6875H47.7461Z" fill="white"/>
</svg>
